<svg id="visual" viewBox="0 0 3000 2000" width="3000" height="2000" xmlns="http://www.w3.org/2000/svg" xmlns:xlink="http://www.w3.org/1999/xlink" version="1.1"><rect width="3000" height="2000" fill="#FFFFFF"></rect><g><g transform="translate(2270 266)"><path d="M119.4 -89.3C156.1 -49.3 188 0.5 180.8 45C173.6 89.5 127.3 128.8 75.7 151.3C24.2 173.8 -32.5 179.5 -75.5 158.3C-118.6 137 -147.9 88.7 -163.2 33.8C-178.4 -21.1 -179.6 -82.6 -150.1 -121C-120.5 -159.4 -60.3 -174.6 -9.4 -167.1C41.4 -159.6 82.8 -129.3 119.4 -89.3Z" stroke="#25b782" fill="none" stroke-width="20"></path></g><g transform="translate(2350 1883)"><path d="M52.3 -37.1C68.1 -21.8 81.5 -0.1 79.7 22.3C77.9 44.8 60.9 67.8 38 78.9C15.1 89.9 -13.6 88.9 -37.8 77.6C-61.9 66.3 -81.5 44.7 -84.7 21.8C-87.9 -1 -74.8 -25.1 -58 -40.6C-41.1 -56.1 -20.6 -63.1 -1.2 -62.1C18.2 -61.2 36.4 -52.4 52.3 -37.1Z" stroke="#25b782" fill="none" stroke-width="20"></path></g><g transform="translate(1506 1987)"><path d="M130.3 -111.5C159.1 -67.7 166.1 -14.1 153.2 31.9C140.2 77.9 107.3 116.3 66.2 135.2C25 154.2 -24.4 153.8 -72.5 136.2C-120.5 118.5 -167.1 83.7 -182 36.4C-196.9 -10.9 -180.2 -70.6 -144.5 -116C-108.9 -161.3 -54.5 -192.3 -1.9 -190.8C50.7 -189.3 101.4 -155.3 130.3 -111.5Z" stroke="#25b782" fill="none" stroke-width="20"></path></g><g transform="translate(635 1466)"><path d="M85.8 -70.7C110.1 -38 127.9 -2.4 120.6 26.9C113.4 56.1 81.2 78.9 48.4 91.2C15.6 103.4 -17.8 104.9 -47 92.7C-76.1 80.5 -100.8 54.6 -108.2 24.2C-115.6 -6.3 -105.6 -41.3 -84.7 -73.2C-63.7 -105.1 -31.9 -134 -0.5 -133.6C30.8 -133.2 61.6 -103.4 85.8 -70.7Z" stroke="#25b782" fill="none" stroke-width="20"></path></g><g transform="translate(2835 1180)"><path d="M109.1 -86C132 -58.3 134.6 -13.5 123.6 25.7C112.6 64.8 88.1 98.3 52.8 118.7C17.6 139.2 -28.2 146.5 -67.9 131.2C-107.5 115.8 -141 77.8 -146.5 37.9C-152.1 -2 -129.7 -43.7 -100.6 -72.8C-71.5 -101.9 -35.7 -118.3 3.7 -121.3C43.1 -124.2 86.2 -113.7 109.1 -86Z" stroke="#25b782" fill="none" stroke-width="20"></path></g><g transform="translate(1472 768)"><path d="M94.1 -73.2C114.7 -49.3 119 -10.6 111.8 27.3C104.5 65.2 85.9 102.4 52.7 124C19.5 145.6 -28.3 151.7 -57.4 132.6C-86.6 113.4 -97.1 69 -100.1 30.2C-103.1 -8.6 -98.5 -41.7 -80.6 -65C-62.6 -88.3 -31.3 -101.6 2.7 -103.8C36.8 -106 73.6 -97 94.1 -73.2Z" stroke="#25b782" fill="none" stroke-width="20"></path></g><g transform="translate(1023 1)"><path d="M133.6 -102.8C164 -68.4 173.3 -13.3 158.8 30.7C144.3 74.7 106 107.6 64.3 124.1C22.6 140.6 -22.6 140.7 -70.2 125.5C-117.8 110.4 -167.9 80.1 -180 37.9C-192.2 -4.3 -166.5 -58.2 -130.1 -94C-93.8 -129.9 -46.9 -147.5 2.3 -149.3C51.6 -151.2 103.2 -137.3 133.6 -102.8Z" stroke="#25b782" fill="none" stroke-width="20"></path></g><g transform="translate(86 826)"><path d="M46 -34.8C55.5 -24.9 56.1 -6 52.1 12C48 29.9 39.4 46.9 25.4 54.1C11.5 61.3 -7.8 58.7 -24.6 50.7C-41.5 42.8 -56 29.4 -57.8 15C-59.7 0.6 -48.9 -14.9 -37.1 -25.3C-25.4 -35.7 -12.7 -41.1 2.8 -43.3C18.3 -45.5 36.6 -44.6 46 -34.8Z" stroke="#25b782" fill="none" stroke-width="20"></path></g><g transform="translate(1933 1590)"><path d="M87.8 -67.8C110.4 -41.6 123.1 -5.3 115.5 25.8C107.9 56.9 80.1 82.7 47.8 97.8C15.4 112.8 -21.5 117 -45.2 102.3C-68.8 87.7 -79.2 54.1 -87.5 19.5C-95.7 -15 -101.7 -50.4 -86.7 -74.8C-71.8 -99.2 -35.9 -112.5 -1.7 -111.2C32.6 -109.8 65.2 -93.9 87.8 -67.8Z" stroke="#25b782" fill="none" stroke-width="20"></path></g><g transform="translate(2926 1991)"><path d="M106.2 -78.5C132.6 -51.6 145.5 -7.7 135.4 28.7C125.3 65.1 92.3 94.1 54.1 112.5C15.9 131 -27.4 138.9 -57 122.9C-86.5 106.9 -102.3 66.9 -108.5 28.1C-114.7 -10.7 -111.3 -48.4 -91.7 -73.8C-72 -99.2 -36 -112.3 2 -113.9C39.9 -115.4 79.8 -105.5 106.2 -78.5Z" stroke="#25b782" fill="none" stroke-width="20"></path></g><g transform="translate(1781 157)"><path d="M104.5 -85.5C130.7 -50.6 143.8 -7.4 133 26.5C122.2 60.5 87.6 85.1 48.9 105C10.3 124.9 -32.2 140 -67.7 127.8C-103.2 115.6 -131.7 76.1 -136.6 36.4C-141.5 -3.3 -122.7 -43.1 -96 -78.2C-69.3 -113.2 -34.7 -143.5 2.3 -145.3C39.2 -147.2 78.4 -120.5 104.5 -85.5Z" stroke="#25b782" fill="none" stroke-width="20"></path></g><g transform="translate(480 505)"><path d="M84.8 -60.8C106 -40.9 116.8 -5.9 107.4 20C97.9 46 68.1 62.8 39 74.2C9.9 85.6 -18.5 91.6 -41.7 82.1C-64.9 72.7 -82.9 47.8 -90.6 19.2C-98.4 -9.5 -95.9 -42 -79.1 -60.9C-62.3 -79.8 -31.2 -85 0.3 -85.3C31.7 -85.5 63.5 -80.7 84.8 -60.8Z" stroke="#25b782" fill="none" stroke-width="20"></path></g><g transform="translate(2044 846)"><path d="M74.7 -61.8C94.2 -35.2 105.3 -4.3 99.2 22.8C93.1 49.8 69.8 73.1 42.8 84.3C15.9 95.5 -14.6 94.6 -46.6 84C-78.5 73.5 -112 53.3 -117.1 27.6C-122.3 1.9 -99.1 -29.3 -74.9 -57C-50.7 -84.6 -25.3 -108.6 1.2 -109.5C27.7 -110.4 55.3 -88.3 74.7 -61.8Z" stroke="#25b782" fill="none" stroke-width="20"></path></g><g transform="translate(133 1980)"><path d="M42.3 -32.8C52.3 -21.1 56.3 -3.7 52.9 12.4C49.5 28.6 38.8 43.4 23.1 52.8C7.4 62.2 -13.2 66.1 -30.8 59.4C-48.5 52.6 -63.2 35.2 -65.5 17.2C-67.8 -0.8 -57.8 -19.5 -44.8 -31.8C-31.8 -44.1 -15.9 -50.2 0.1 -50.2C16.1 -50.3 32.2 -44.4 42.3 -32.8Z" stroke="#25b782" fill="none" stroke-width="20"></path></g><g transform="translate(52 175)"><path d="M60.8 -44.2C78.6 -26.2 92.6 -0.9 88 20.5C83.5 41.9 60.3 59.5 35.1 71C9.8 82.5 -17.5 87.9 -44.9 79.8C-72.2 71.8 -99.5 50.4 -104 25.2C-108.6 0.1 -90.4 -28.7 -69.2 -47.5C-48.1 -66.3 -24 -75.1 -1.3 -74.1C21.5 -73.1 43 -62.3 60.8 -44.2Z" stroke="#25b782" fill="none" stroke-width="20"></path></g><g transform="translate(2789 122)"><path d="M102.3 -80.3C127.1 -50.4 138.2 -8.2 135.1 41.1C132.1 90.5 115 146.9 74.5 173.7C34 200.5 -30 197.8 -71.4 169.6C-112.8 141.5 -131.6 87.9 -139.9 36.3C-148.1 -15.3 -145.8 -64.9 -120.8 -94.8C-95.7 -124.7 -47.8 -134.9 -4.6 -131.2C38.7 -127.6 77.4 -110.1 102.3 -80.3Z" stroke="#25b782" fill="none" stroke-width="20"></path></g><g transform="translate(1077 1191)"><path d="M106.1 -82.4C136 -47.2 157.5 -3.2 149 34C140.5 71.3 102.1 101.7 58.7 122.9C15.4 144.1 -32.8 156.1 -79.6 142.3C-126.4 128.6 -171.9 89.1 -180 43.8C-188.1 -1.4 -159 -52.5 -122.8 -89.1C-86.5 -125.7 -43.3 -147.9 -2.6 -145.8C38.1 -143.8 76.3 -117.5 106.1 -82.4Z" stroke="#25b782" fill="none" stroke-width="20"></path></g><g transform="translate(981 1848)"><path d="M111.9 -93.5C134.4 -60.9 134.9 -15 124.8 28.1C114.7 71.3 93.9 111.7 61.1 127.8C28.3 143.9 -16.6 135.7 -62.2 118C-107.7 100.3 -154 73 -164.3 35.4C-174.5 -2.2 -148.7 -50 -115.3 -85.1C-81.9 -120.2 -40.9 -142.4 1.9 -143.9C44.7 -145.4 89.3 -126.1 111.9 -93.5Z" stroke="#25b782" fill="none" stroke-width="20"></path></g><g transform="translate(43 1438)"><path d="M107.6 -91.5C128.8 -59.3 128 -15.1 115.1 20.3C102.3 55.7 77.4 82.4 45.1 100.8C12.7 119.2 -27.2 129.2 -64.7 117.6C-102.3 106 -137.4 72.7 -142.1 36.9C-146.7 1 -120.8 -37.3 -92 -71.3C-63.2 -105.3 -31.6 -135 5.8 -139.6C43.2 -144.2 86.4 -123.8 107.6 -91.5Z" stroke="#25b782" fill="none" stroke-width="20"></path></g><g transform="translate(2884 663)"><path d="M76.8 -64.5C97.7 -35.2 111.3 -3.3 107 27.9C102.6 59.2 80.4 89.9 48.2 108.8C15.9 127.7 -26.2 134.9 -56.8 119.5C-87.5 104.2 -106.6 66.4 -113.8 27.9C-121.1 -10.6 -116.5 -49.9 -95.6 -79.3C-74.6 -108.7 -37.3 -128.1 -4.6 -124.4C28 -120.7 56 -93.8 76.8 -64.5Z" stroke="#25b782" fill="none" stroke-width="20"></path></g><g transform="translate(955 698)"><path d="M114 -90.7C133.9 -65.9 126.7 -19.3 113.6 21.1C100.6 61.6 81.6 95.9 53 109.5C24.3 123.2 -14.1 116.1 -48 99.8C-81.9 83.4 -111.3 57.8 -119.6 25.9C-128 -5.9 -115.3 -43.9 -91.9 -69.4C-68.5 -95 -34.2 -108.1 6.4 -113.3C47 -118.4 94 -115.4 114 -90.7Z" stroke="#25b782" fill="none" stroke-width="20"></path></g></g></svg>