<svg id="visual" viewBox="0 0 3000 2000" width="3000" height="2000" xmlns="http://www.w3.org/2000/svg" xmlns:xlink="http://www.w3.org/1999/xlink" version="1.1"><rect x="0" y="0" width="3000" height="2000" fill="#FFFFFF"></rect><defs><linearGradient id="grad1_0" x1="33.3%" y1="0%" x2="100%" y2="100%"><stop offset="20%" stop-color="#ffffff" stop-opacity="1"></stop><stop offset="80%" stop-color="#ffffff" stop-opacity="1"></stop></linearGradient></defs><defs><linearGradient id="grad2_0" x1="0%" y1="0%" x2="66.7%" y2="100%"><stop offset="20%" stop-color="#ffffff" stop-opacity="1"></stop><stop offset="80%" stop-color="#ffffff" stop-opacity="1"></stop></linearGradient></defs><g transform="translate(3000, 0)"><path d="M0 1352.1C-183.5 1343.2 -367.1 1334.2 -517.4 1249.2C-667.7 1164.1 -784.8 1002.8 -851.4 851.4C-917.9 699.9 -933.8 558.2 -1008.9 417.9C-1083.9 277.6 -1218 138.8 -1352.1 0L0 0Z" fill="#25b782"></path></g><g transform="translate(0, 2000)"><path d="M0 -1352.1C124.6 -1205 249.3 -1057.9 419.4 -1012.6C589.6 -967.2 805.2 -1023.6 956.1 -956.1C1106.9 -888.5 1193 -697 1248.2 -517C1303.4 -337 1327.7 -168.5 1352.1 0L0 0Z" fill="#25b782"></path></g></svg>